<svg xmlns="http://www.w3.org/2000/svg" viewBox="0 0 1200 750" role="img" aria-labelledby="title desc">
  <title id="title">Hotel management concept preview</title>
  <desc id="desc">An original operations interface with room availability, occupancy, and reservation cards.</desc>
  <defs>
    <linearGradient id="bg" x1="0" y1="0" x2="1" y2="1">
      <stop stop-color="#111931"/>
      <stop offset="1" stop-color="#262625"/>
    </linearGradient>
    <linearGradient id="blue" x1="0" y1="0" x2="1" y2="1">
      <stop stop-color="#7b9cff"/>
      <stop offset="1" stop-color="#3e68ed"/>
    </linearGradient>
  </defs>
  <rect width="1200" height="750" fill="url(#bg)"/>
  <circle cx="1030" cy="95" r="260" fill="#4f7dff" opacity=".11"/>
  <rect x="72" y="58" width="1056" height="634" rx="28" fill="#30302f" stroke="#dbc7b7" stroke-opacity=".2"/>
  <rect x="72" y="58" width="202" height="634" rx="28" fill="#343431"/>
  <rect x="105" y="92" width="34" height="34" rx="10" fill="url(#blue)"/>
  <path d="M114 113v-11h5v5h7v-5h5v11" fill="none" stroke="#fff" stroke-width="3" stroke-linejoin="round"/>
  <text x="150" y="115" fill="#f8f3ea" font-family="Arial,sans-serif" font-size="17" font-weight="700">Staywise</text>
  <g fill="#9aa6bc" font-family="Arial,sans-serif" font-size="12">
    <text x="107" y="190">Overview</text>
    <text x="107" y="240">Reservations</text>
    <text x="107" y="290">Rooms</text>
    <text x="107" y="340">Guests</text>
    <text x="107" y="390">Reports</text>
  </g>
  <rect x="91" y="158" width="165" height="49" rx="13" fill="#182441"/>
  <circle cx="222" cy="182" r="5" fill="#7b9cff"/>
  <text x="309" y="106" fill="#f8f3ea" font-family="Arial,sans-serif" font-size="24" font-weight="700">Hotel overview</text>
  <text x="309" y="132" fill="#8f9bb2" font-family="Arial,sans-serif" font-size="12">Room operations and upcoming arrivals</text>
  <rect x="901" y="87" width="195" height="24" rx="12" fill="#242423" opacity=".86"/>
  <text x="929" y="104" fill="#dbc7b7" font-family="Arial,sans-serif" font-size="10" font-weight="700" letter-spacing="2">CONCEPT PREVIEW</text>
  <g>
    <rect x="309" y="164" width="242" height="111" rx="19" fill="#3c3b38"/>
    <rect x="568" y="164" width="242" height="111" rx="19" fill="#3c3b38"/>
    <rect x="827" y="164" width="269" height="111" rx="19" fill="#3c3b38"/>
    <text x="334" y="194" fill="#96a3ba" font-family="Arial,sans-serif" font-size="11">AVAILABLE ROOMS</text>
    <text x="334" y="245" fill="#fff" font-family="Arial,sans-serif" font-size="36" font-weight="700">18</text>
    <text x="593" y="194" fill="#96a3ba" font-family="Arial,sans-serif" font-size="11">OCCUPIED</text>
    <text x="593" y="245" fill="#fff" font-family="Arial,sans-serif" font-size="36" font-weight="700">24</text>
    <text x="852" y="194" fill="#96a3ba" font-family="Arial,sans-serif" font-size="11">ARRIVALS TODAY</text>
    <text x="852" y="245" fill="#7b9cff" font-family="Arial,sans-serif" font-size="36" font-weight="700">07</text>
  </g>
  <rect x="309" y="297" width="503" height="361" rx="21" fill="#343431"/>
  <text x="334" y="337" fill="#f8f3ea" font-family="Arial,sans-serif" font-size="18" font-weight="700">Room availability</text>
  <text x="721" y="337" fill="#dbc7b7" font-family="Arial,sans-serif" font-size="12">Floor 2</text>
  <g font-family="Arial,sans-serif" font-size="13" font-weight="700" text-anchor="middle">
    <g fill="#173b36"><rect x="334" y="368" width="95" height="70" rx="14"/><text x="382" y="400" fill="#9ae8c8">201</text><text x="382" y="420" fill="#65b99a" font-size="9">AVAILABLE</text></g>
    <g fill="#17233d"><rect x="445" y="368" width="95" height="70" rx="14"/><text x="493" y="400" fill="#b8c7ff">202</text><text x="493" y="420" fill="#7d91d5" font-size="9">OCCUPIED</text></g>
    <g fill="#17233d"><rect x="556" y="368" width="95" height="70" rx="14"/><text x="604" y="400" fill="#b8c7ff">203</text><text x="604" y="420" fill="#7d91d5" font-size="9">OCCUPIED</text></g>
    <g fill="#173b36"><rect x="667" y="368" width="119" height="70" rx="14"/><text x="727" y="400" fill="#9ae8c8">204</text><text x="727" y="420" fill="#65b99a" font-size="9">AVAILABLE</text></g>
    <g fill="#17233d"><rect x="334" y="455" width="95" height="70" rx="14"/><text x="382" y="487" fill="#b8c7ff">205</text><text x="382" y="507" fill="#7d91d5" font-size="9">OCCUPIED</text></g>
    <g fill="#3b2f1c"><rect x="445" y="455" width="95" height="70" rx="14"/><text x="493" y="487" fill="#ffd993">206</text><text x="493" y="507" fill="#c7a35f" font-size="9">CLEANING</text></g>
    <g fill="#173b36"><rect x="556" y="455" width="95" height="70" rx="14"/><text x="604" y="487" fill="#9ae8c8">207</text><text x="604" y="507" fill="#65b99a" font-size="9">AVAILABLE</text></g>
    <g fill="#17233d"><rect x="667" y="455" width="119" height="70" rx="14"/><text x="727" y="487" fill="#b8c7ff">208</text><text x="727" y="507" fill="#7d91d5" font-size="9">OCCUPIED</text></g>
  </g>
  <rect x="334" y="554" width="452" height="75" rx="15" fill="#0c1322"/>
  <circle cx="365" cy="591" r="13" fill="#4f7dff" opacity=".7"/>
  <rect x="392" y="575" width="132" height="7" rx="4" fill="#f8f3ea" opacity=".75"/>
  <rect x="392" y="595" width="92" height="5" rx="3" fill="#99a5bc" opacity=".35"/>
  <rect x="834" y="297" width="262" height="361" rx="21" fill="#343431"/>
  <text x="859" y="337" fill="#f8f3ea" font-family="Arial,sans-serif" font-size="18" font-weight="700">Next arrivals</text>
  <g>
    <rect x="859" y="367" width="212" height="73" rx="14" fill="#131e34"/>
    <rect x="859" y="454" width="212" height="73" rx="14" fill="#131e34"/>
    <rect x="859" y="541" width="212" height="73" rx="14" fill="#131e34"/>
    <circle cx="889" cy="403" r="15" fill="#4f7dff" opacity=".52"/>
    <circle cx="889" cy="490" r="15" fill="#54d9ff" opacity=".42"/>
    <circle cx="889" cy="577" r="15" fill="#7b9cff" opacity=".45"/>
    <rect x="919" y="389" width="97" height="7" rx="4" fill="#f8f3ea" opacity=".74"/>
    <rect x="919" y="409" width="65" height="5" rx="3" fill="#9aa6bc" opacity=".38"/>
    <rect x="919" y="476" width="108" height="7" rx="4" fill="#f8f3ea" opacity=".74"/>
    <rect x="919" y="496" width="59" height="5" rx="3" fill="#9aa6bc" opacity=".38"/>
    <rect x="919" y="563" width="90" height="7" rx="4" fill="#f8f3ea" opacity=".74"/>
    <rect x="919" y="583" width="72" height="5" rx="3" fill="#9aa6bc" opacity=".38"/>
  </g>
</svg>
